HIERARCHY
ROOT hip
{
  OFFSET 0 0 0
  CHANNELS 6 Xposition Yposition Zposition Zrotation Yrotation Xrotation
  JOINT abdomen
  {
    OFFSET 0 20.6881 -0.73152
    CHANNELS 3 Zrotation Xrotation Yrotation
    JOINT chest
    {
      OFFSET 0 11.7043 -0.48768
      CHANNELS 3 Zrotation Xrotation Yrotation
      JOINT neck
      {
        OFFSET 0 22.1894 -2.19456
        CHANNELS 3 Zrotation Xrotation Yrotation
        JOINT head
        {
          OFFSET -0.24384 7.07133 1.2192
          CHANNELS 3 Zrotation Xrotation Yrotation
          JOINT leftEye
          {
            OFFSET 4.14528 8.04674 8.04672
            CHANNELS 3 Zrotation Xrotation Yrotation
            End Site
            {
              OFFSET 1 0 0
            }
          }
          JOINT rightEye
          {
            OFFSET -3.6576 8.04674 8.04672
            CHANNELS 3 Zrotation Xrotation Yrotation
            End Site
            {
              OFFSET 1 0 0
            }
          }
        }
      }
      JOINT rCollar
      {
        OFFSET -2.68224 19.2634 -4.8768
        CHANNELS 3 Zrotation Xrotation Yrotation
        JOINT rShldr
        {
          OFFSET -8.77824 -1.95073 1.46304
          CHANNELS 3 Zrotation Xrotation Yrotation
          JOINT rForeArm
          {
            OFFSET -28.1742 -1.7115 0.48768
            CHANNELS 3 Zrotation Xrotation Yrotation
            JOINT rHand
            {
              OFFSET -22.5879 0.773209 7.07136
              CHANNELS 3 Zrotation Xrotation Yrotation
              JOINT rThumb1
              {
                OFFSET -1.2192 -0.487915 3.41376
                CHANNELS 3 Zrotation Xrotation Yrotation
                JOINT rThumb2
                {
                  OFFSET -3.37035 -0.52449 3.41376
                  CHANNELS 3 Zrotation Xrotation Yrotation
                  End Site
                  {
                    OFFSET -1.78271 -1.18214 1.43049
                  }
                }
              }
              JOINT rIndex1
              {
                OFFSET -7.75947 0.938293 5.60832
                CHANNELS 3 Zrotation Xrotation Yrotation
                JOINT rIndex2
                {
                  OFFSET -2.54057 -0.884171 1.56538
                  CHANNELS 3 Zrotation Xrotation Yrotation
                  End Site
                  {
                    OFFSET -1.62519 -0.234802 1.16502
                  }
                }
              }
              JOINT rMid1
              {
                OFFSET -8.24714 1.18213 3.41376
                CHANNELS 3 Zrotation Xrotation Yrotation
                JOINT rMid2
                {
                  OFFSET -3.10165 -0.590103 1.0647
                  CHANNELS 3 Zrotation Xrotation Yrotation
                  End Site
                  {
                    OFFSET -2.48547 -0.328903 0.83742
                  }
                }
              }
              JOINT rRing1
              {
                OFFSET -8.82822 0.546677 1.51678
                CHANNELS 3 Zrotation Xrotation Yrotation
                JOINT rRing2
                {
                  OFFSET -2.60934 -0.819778 -0.0198488
                  CHANNELS 3 Zrotation Xrotation Yrotation
                  End Site
                  {
                    OFFSET -2.33842 -0.294052 0.168128
                  }
                }
              }
              JOINT rPinky1
              {
                OFFSET -8.27202 -0.0477905 -0.4584
                CHANNELS 3 Zrotation Xrotation Yrotation
                JOINT rPinky2
                {
                  OFFSET -1.82734 -0.647385 -0.700984
                  CHANNELS 3 Zrotation Xrotation Yrotation
                  End Site
                  {
                    OFFSET -1.69225 -0.51767 -0.607171
                  }
                }
              }
            }
          }
        }
      }
      JOINT lCollar
      {
        OFFSET 2.68224 19.2634 -4.8768
        CHANNELS 3 Zrotation Xrotation Yrotation
        JOINT lShldr
        {
          OFFSET 8.77824 -1.95073 1.46304
          CHANNELS 3 Zrotation Xrotation Yrotation
          JOINT lForeArm
          {
            OFFSET 28.1742 -1.7115 0.48768
            CHANNELS 3 Zrotation Xrotation Yrotation
            JOINT lHand
            {
              OFFSET 22.5879 0.773209 7.07136
              CHANNELS 3 Zrotation Xrotation Yrotation
              JOINT lThumb1
              {
                OFFSET 1.2192 -0.487915 3.41376
                CHANNELS 3 Zrotation Xrotation Yrotation
                JOINT lThumb2
                {
                  OFFSET 3.37035 -0.52449 3.41376
                  CHANNELS 3 Zrotation Xrotation Yrotation
                  End Site
                  {
                    OFFSET 1.78271 -1.18214 1.43049
                  }
                }
              }
              JOINT lIndex1
              {
                OFFSET 7.75947 0.938293 5.60832
                CHANNELS 3 Zrotation Xrotation Yrotation
                JOINT lIndex2
                {
                  OFFSET 2.54057 -0.884171 1.56538
                  CHANNELS 3 Zrotation Xrotation Yrotation
                  End Site
                  {
                    OFFSET 1.62519 -0.234802 1.16502
                  }
                }
              }
              JOINT lMid1
              {
                OFFSET 8.24714 1.18213 3.41376
                CHANNELS 3 Zrotation Xrotation Yrotation
                JOINT lMid2
                {
                  OFFSET 3.10165 -0.590103 1.0647
                  CHANNELS 3 Zrotation Xrotation Yrotation
                  End Site
                  {
                    OFFSET 2.48547 -0.328903 0.83742
                  }
                }
              }
              JOINT lRing1
              {
                OFFSET 8.82822 0.546677 1.51678
                CHANNELS 3 Zrotation Xrotation Yrotation
                JOINT lRing2
                {
                  OFFSET 2.60934 -0.819778 -0.0198488
                  CHANNELS 3 Zrotation Xrotation Yrotation
                  End Site
                  {
                    OFFSET 2.33842 -0.294052 0.168128
                  }
                }
              }
              JOINT lPinky1
              {
                OFFSET 8.27202 -0.0477905 -0.4584
                CHANNELS 3 Zrotation Xrotation Yrotation
                JOINT lPinky2
                {
                  OFFSET 1.82734 -0.647385 -0.700984
                  CHANNELS 3 Zrotation Xrotation Yrotation
                  End Site
                  {
                    OFFSET 1.69225 -0.51767 -0.607171
                  }
                }
              }
            }
          }
        }
      }
    }
  }
  JOINT rButtock
  {
    OFFSET -8.77824 4.35084 1.2192
    CHANNELS 3 Zrotation Xrotation Yrotation
    JOINT rThigh
    {
      OFFSET 0 -1.70687 -2.19456
      CHANNELS 3 Zrotation Xrotation Yrotation
      JOINT rShin
      {
        OFFSET 0 -36.8199 0.73152
        CHANNELS 3 Zrotation Xrotation Yrotation
        JOINT rFoot
        {
          OFFSET 0.73152 -45.1104 -5.12064
          CHANNELS 3 Zrotation Xrotation Yrotation
          End Site
          {
            OFFSET -1.1221 -3.69964 12.103
          }
        }
      }
    }
  }
  JOINT lButtock
  {
    OFFSET 8.77824 4.35084 1.2192
    CHANNELS 3 Zrotation Xrotation Yrotation
    JOINT lThigh
    {
      OFFSET 0 -1.70687 -2.19456
      CHANNELS 3 Zrotation Xrotation Yrotation
      JOINT lShin
      {
        OFFSET 0 -36.8199 0.73152
        CHANNELS 3 Zrotation Xrotation Yrotation
        JOINT lFoot
        {
          OFFSET -0.73152 -45.1104 -5.12064
          CHANNELS 3 Zrotation Xrotation Yrotation
          End Site
          {
            OFFSET 1.1221 -3.69964 12.103
          }
        }
      }
    }
  }
}
MOTION
Frames:	7
Frame Time:	0.00833333
57.3299 82.1289 -83.8699 0.0 0.0 0.0 2.34101 -0.00222416 0.0637214 0.646596 0.00594987 0.111938 6.99262e-14 7.95139e-16 -7.20594e-16 2.10249e-13 3.18055e-15 -2.14004e-15 -0.0 0.0 0.0 -0.0 0.0 0.0 3.52834e-14 -1.29482e-16 -1.98785e-16 7.35337e-13 -2.37299e-15 -4.37326e-15 1.26791e-11 -3.86954e-12 -2.54444e-13 1.44944e-10 3.30885e-12 -1.21179e-12 3.41943e-10 -1.22201e-12 -3.20918e-12 5.90517e-10 -2.11507e-12 -5.55722e-12 3.41948e-10 -1.22173e-12 -3.21236e-12 7.73091 5.47488 0.417314 3.41942e-10 -1.22243e-12 -3.21236e-12 2.90554 0.965183 0.102902 3.41955e-10 -1.22173e-12 -3.21077e-12 10.2786 0.731801 0.0259123 3.41939e-10 -1.22014e-12 -3.206e-12 2.22167 -0.733487 -0.20892 3.51881e-14 -1.25793e-16 -3.97569e-16 7.32123e-13 -2.86374e-15 -5.96354e-15 1.26505e-11 3.69958e-12 -2.63986e-13 1.44954e-10 -4.27519e-12 -1.20543e-12 3.41909e-10 -1.24889e-12 -3.21872e-12 5.90478e-10 -2.15642e-12 -5.56279e-12 3.41906e-10 -1.24678e-12 -3.20918e-12 -7.73091 5.47488 -0.417314 3.41909e-10 -1.24877e-12 -3.21554e-12 -2.90554 0.965183 -0.102902 3.41901e-10 -1.24896e-12 -3.21634e-12 -10.2786 0.731801 -0.0259123 3.41913e-10 -1.24717e-12 -3.21872e-12 -2.22167 -0.733487 0.20892 -2.03217e-16 0.0 -3.88251e-19 2.21553 -8.02973 -0.231362 0.00607146 8.97368 0.15207 -0.47773 -0.951453 0.0348683 2.03217e-16 0.0 3.88251e-19 1.3521 -1.92788 -0.00535863 0.00846626 -2.07867 0.0694572 0.42382 3.99897 -0.127284
57.2631 79.6237 -83.7915 1.7923 -3.9891 1.1015 2.11778 2.11091 0.607855 0.395003 -3.03111 0.261511 1.28251 2.77106 0.380632 -3.32137 -1.89271 0.425336 -0.0 0.0 0.0 -0.0 0.0 0.0 2.24165e-14 -5.99267e-15 -7.00056e-15 7.38214 3.94457 11.9736 -13.4492 -10.5143 14.0463 0.103231 7.13736 0.975206 2.51467e-10 4.69583e-11 2.63899e-11 4.3486e-10 8.13627e-11 4.55896e-11 2.51471e-10 4.69621e-11 2.63878e-11 7.73091 5.47488 0.417314 2.51466e-10 4.69575e-11 2.63883e-11 2.90554 0.965183 0.102902 2.51477e-10 4.69585e-11 2.63909e-11 10.2786 0.731801 0.0259123 2.51462e-10 4.69608e-11 2.63968e-11 2.22167 -0.733487 -0.20892 2.23414e-14 -5.98959e-15 -7.22536e-15 -6.30005 3.37962 -11.4128 12.825 -9.83287 -13.8006 -0.0715938 5.94119 -0.818853 2.22803e-10 -8.16359e-11 1.20182e-11 3.84797e-10 -1.42682e-10 2.1142e-11 2.228e-10 -8.16323e-11 1.2027e-11 -7.73091 5.47488 -0.417314 2.22802e-10 -8.16306e-11 1.20185e-11 -2.90554 0.965183 -0.102902 2.22796e-10 -8.16332e-11 1.20199e-11 -10.2786 0.731801 -0.0259123 2.22808e-10 -8.16305e-11 1.20171e-11 -2.22167 -0.733487 0.20892 -2.03217e-16 0.0 -3.88251e-19 1.15601 -14.4737 -0.988595 0.0238904 21.9127 0.371966 -1.63388 -6.61788 -4.53712 2.03217e-16 0.0 3.88251e-19 2.16305 -9.65262 0.76798 -0.0049582 12.8006 -0.13036 0.300976 -3.71933 -0.816518
57.276 79.6184 -83.8015 1.8292 -3.9484 1.1437 1.83602 4.34313 1.18663 0.144747 -6.24355 0.421253 2.59775 5.69795 0.785663 -6.79896 -3.88893 0.876326 -0.0 0.0 0.0 -0.0 0.0 0.0 8.52265e-15 -1.34007e-14 -1.61419e-14 13.4358 7.53936 24.7992 -22.0166 -19.4821 30.2993 -0.0599071 14.6776 2.05803 1.64531e-10 1.3597e-10 6.94486e-11 2.85592e-10 2.35023e-10 1.19809e-10 1.64534e-10 1.35978e-10 6.94478e-11 7.73091 5.47488 0.417314 1.6453e-10 1.35969e-10 6.94486e-11 2.90554 0.965183 0.102902 1.6454e-10 1.3597e-10 6.94523e-11 10.2786 0.731801 0.0259123 1.64525e-10 1.35973e-10 6.94595e-11 2.22167 -0.733487 -0.20892 8.47088e-15 -1.33982e-14 -1.63935e-14 -11.528 6.50729 -23.5985 21.2162 -18.2947 -29.5971 0.0412517 12.2185 -1.71438 8.63569e-11 -1.63024e-10 2.79929e-11 1.49133e-10 -2.85634e-10 4.933e-11 8.63523e-11 -1.63018e-10 2.80008e-11 -7.73091 5.47488 -0.417314 8.63553e-11 -1.63012e-10 2.79899e-11 -2.90554 0.965183 -0.102902 8.63502e-11 -1.63018e-10 2.79937e-11 -10.2786 0.731801 -0.0259123 8.63614e-11 -1.63014e-10 2.79905e-11 -2.22167 -0.733487 0.20892 -2.03217e-16 0.0 -3.88251e-19 -0.165428 -21.2814 -1.85406 -0.0912301 35.5903 0.677745 -3.85634 -12.482 -9.5337 2.03217e-16 0.0 3.88251e-19 3.25506 -17.8145 1.64109 0.106156 28.5283 -0.38113 -0.0354376 -11.8742 -1.57757
57.2747 79.6192 -83.7991 1.8237 -3.9432 1.1255 1.55029 6.33474 1.7053 -0.0600128 -9.10488 0.5667 3.73609 8.31171 1.15267 -9.87945 -5.67686 1.2816 -0.0 0.0 0.0 -0.0 0.0 0.0 -3.31739e-15 -1.7719e-14 -2.06041e-14 17.5026 9.78118 36.4471 -25.3427 -23.7562 46.2845 -0.464671 21.3863 3.11782 7.05159e-11 1.43319e-10 8.55881e-11 1.23545e-10 2.48318e-10 1.47883e-10 7.05176e-11 1.4333e-10 8.55882e-11 7.73091 5.47488 0.417314 7.05148e-11 1.43317e-10 8.55897e-11 2.90554 0.965183 0.102902 7.05228e-11 1.43319e-10 8.55941e-11 10.2786 0.731801 0.0259123 7.05094e-11 1.43323e-10 8.56024e-11 2.22167 -0.733487 -0.20892 -3.35184e-15 -1.77172e-14 -2.08809e-14 -15.0918 8.54184 -34.6156 24.7457 -22.5002 -44.9912 0.316314 17.8086 -2.56641 -1.54075e-11 -2.4241e-10 4.24921e-11 -2.65627e-11 -4.23732e-10 7.45517e-11 -1.54127e-11 -2.42403e-10 4.24993e-11 -7.73091 5.47488 -0.417314 -1.54095e-11 -2.42394e-10 4.24866e-11 -2.90554 0.965183 -0.102902 -1.54136e-11 -2.42402e-10 4.24923e-11 -10.2786 0.731801 -0.0259123 -1.54029e-11 -2.42397e-10 4.24888e-11 -2.22167 -0.733487 0.20892 -2.03217e-16 0.0 -3.88251e-19 -1.53507 -27.3415 -2.7172 -0.381597 47.7869 1.09376 -6.74233 -17.4917 -14.2627 2.03217e-16 0.0 3.88251e-19 4.46706 -25.0834 2.5198 0.364216 42.557 -0.706198 -0.528774 -19.1425 -2.31872
57.2657 79.6191 -83.7981 1.7822 -3.9383 1.1151 1.34055 7.72709 2.06503 -0.185237 -11.0887 0.67088 4.51094 10.1441 1.41441 -12.0267 -6.94521 1.56732 -0.0 0.0 0.0 -0.0 0.0 0.0 -1.0023e-14 -1.43133e-14 -1.33683e-14 19.7549 10.6022 44.6521 -26.1883 -23.9302 57.5712 -0.910882 26.0407 3.93761 -4.11977e-11 -5.34902e-11 3.44295e-11 -7.04505e-11 -8.93004e-11 6.05959e-11 -4.11965e-11 -5.34778e-11 3.44295e-11 7.73091 5.47488 0.417314 -4.11989e-11 -5.34909e-11 3.44327e-11 2.90554 0.965183 0.102902 -4.11918e-11 -5.34904e-11 3.44367e-11 10.2786 0.731801 0.0259123 -4.12043e-11 -5.34862e-11 3.44454e-11 2.22167 -0.733487 -0.20892 -1.00549e-14 -1.43123e-14 -1.36664e-14 -17.0916 9.37252 -42.3519 25.7872 -22.9008 -55.9013 0.61437 21.6953 -3.20534 -3.04665e-11 -3.16794e-10 5.33029e-11 -5.23384e-11 -5.49692e-10 9.23577e-11 -3.04717e-11 -3.16786e-10 5.33093e-11 -7.73091 5.47488 -0.417314 -3.04686e-11 -3.16776e-10 5.32966e-11 -2.90554 0.965183 -0.102902 -3.04722e-11 -3.16784e-10 5.33029e-11 -10.2786 0.731801 -0.0259123 -3.04618e-11 -3.1678e-10 5.32997e-11 -2.22167 -0.733487 0.20892 -2.03217e-16 0.0 -3.88251e-19 -2.60207 -31.5506 -3.3896 -0.77724 56.2842 1.55449 -9.28422 -20.798 -17.7782 2.03217e-16 0.0 3.88251e-19 5.48052 -30.1371 3.22377 0.701896 52.34 -1.0631 -0.990675 -24.2077 -2.88507
57.2517 79.6143 -83.8182 1.7141 -3.9348 1.1563 1.28371 8.28411 2.19523 -0.21253 -11.8421 0.714102 4.81669 10.8846 1.52168 -12.9065 -7.4884 1.68114 -0.0 0.0 0.0 -0.0 0.0 0.0 -8.20567e-15 5.56243e-15 1.60651e-14 20.5443 10.7263 47.8837 -26.4126 -23.324 61.8162 -1.12466 27.8349 4.27831 -2.12797e-10 -6.91174e-10 -1.57287e-10 -3.70752e-10 -1.18445e-09 -2.67491e-10 -2.12796e-10 -6.91163e-10 -1.57289e-10 7.73091 5.47488 0.417314 -2.12798e-10 -6.91171e-10 -1.57282e-10 2.90554 0.965183 0.102902 -2.12791e-10 -6.91174e-10 -1.57281e-10 10.2786 0.731801 0.0259123 -2.12803e-10 -6.9117e-10 -1.57273e-10 2.22167 -0.733487 -0.20892 -8.26022e-15 5.56196e-15 1.57463e-14 -17.8182 9.52961 -45.362 26.066 -22.4389 -60.0386 0.756049 23.2033 -3.46656 1.15059e-10 -4.41531e-10 7.22353e-11 1.99803e-10 -7.5558e-10 1.22008e-10 1.15055e-10 -4.41523e-10 7.22409e-11 -7.73091 5.47488 -0.417314 1.15058e-10 -4.41516e-10 7.22312e-11 -2.90554 0.965183 -0.102902 1.15054e-10 -4.41524e-10 7.22362e-11 -10.2786 0.731801 -0.0259123 1.15064e-10 -4.4152e-10 7.22344e-11 -2.22167 -0.733487 0.20892 -2.03217e-16 0.0 -3.88251e-19 -3.01002 -33.1773 -3.66338 -1.00601 59.6046 1.8038 -10.4079 -22.0297 -19.2316 2.03217e-16 0.0 3.88251e-19 5.95679 -32.1009 3.53483 0.895433 56.1846 -1.25864 -1.19297 -26.2017 -3.10659
57.2374 79.6138 -83.8278 1.6429 -3.9169 1.1494 1.34463 8.24482 2.15976 -0.173711 -11.7166 0.71267 4.79582 10.8456 1.51644 -12.887 -7.51381 1.6711 -0.0 0.0 0.0 -0.0 0.0 0.0 -3.64136e-16 3.6933e-14 6.10766e-14 20.4688 10.7057 47.5581 -26.3879 -23.41 61.3501 -1.09586 27.592 4.23177 -4.255e-10 -1.63638e-09 -4.47197e-10 -7.44053e-10 -2.80803e-09 -7.63802e-10 -4.25499e-10 -1.63638e-09 -4.47201e-10 7.73091 5.47488 0.417314 -4.25502e-10 -1.63638e-09 -4.47189e-10 2.90554 0.965183 0.102902 -4.25494e-10 -1.63638e-09 -4.47192e-10 10.2786 0.731801 0.0259123 -4.25505e-10 -1.63638e-09 -4.47185e-10 2.22167 -0.733487 -0.20892 -4.58971e-16 3.69307e-14 6.0738e-14 -17.7944 9.48061 -44.9869 26.0334 -22.5013 -59.5732 0.738184 23.0157 -3.43376 3.73421e-10 -5.99504e-10 9.63362e-11 6.47218e-10 -1.01394e-09 1.5906e-10 3.73419e-10 -5.99497e-10 9.6341e-11 -7.73091 5.47488 -0.417314 3.73421e-10 -5.99496e-10 9.63366e-11 -2.90554 0.965183 -0.102902 3.73417e-10 -5.99501e-10 9.63387e-11 -10.2786 0.731801 -0.0259123 3.73427e-10 -5.99498e-10 9.6339e-11 -2.22167 -0.733487 0.20892 -2.03217e-16 0.0 -3.88251e-19 -2.88786 -32.9634 -3.61308 -0.976597 59.2291 1.77205 -10.2921 -21.8735 -19.1085 2.03217e-16 0.0 3.88251e-19 5.97411 -31.8621 3.51667 0.873099 55.7885 -1.23675 -1.15301 -26.0048 -3.04829
